<?xml version="1.0" encoding="utf-8"?>
<svg viewBox="0 0 500 500" xmlns="http://www.w3.org/2000/svg">
  <path d="M 205.178 212.742 C 173.609 212.742 147.84 238.347 147.84 269.716 C 147.84 301.084 173.609 326.69 205.178 326.69 C 219.496 326.69 232.577 321.383 242.643 312.698 L 246.133 316.166 L 246.133 326.69 L 295.279 375.525 L 311.661 359.246 L 262.515 310.411 L 251.924 310.411 L 248.435 306.944 C 257.174 296.941 262.515 283.943 262.515 269.716 C 262.515 238.347 236.746 212.742 205.178 212.742 Z M 205.178 229.02 C 227.891 229.02 246.133 247.146 246.133 269.716 C 246.133 292.285 227.891 310.411 205.178 310.411 C 182.464 310.411 164.222 292.285 164.222 269.716 C 164.222 247.146 182.464 229.02 205.178 229.02 Z" style="fill: rgb(255, 255, 255);"/>
</svg>