<?xml version="1.0" encoding="utf-8"?>
<svg viewBox="0 0 500 500" xmlns="http://www.w3.org/2000/svg">
  <path d="M 148.803 10.037 C 69.537 10.037 4.835 85.617 4.835 178.211 C 4.835 270.803 69.537 346.385 148.803 346.385 C 184.753 346.385 217.597 330.719 242.872 305.083 L 251.635 315.32 L 251.635 346.385 L 375.034 490.534 L 416.165 442.483 L 292.767 298.333 L 266.175 298.333 L 257.415 288.1 C 279.356 258.573 292.767 220.206 292.767 178.211 C 292.767 85.617 228.065 10.037 148.803 10.037 Z M 148.803 58.085 C 205.832 58.085 251.635 111.59 251.635 178.211 C 251.635 244.83 205.832 298.333 148.803 298.333 C 91.771 298.333 45.968 244.83 45.968 178.211 C 45.968 111.59 91.771 58.085 148.803 58.085 Z" style="fill: rgb(255, 255, 255);"/>
</svg>